# xmcd
#
# Track frame offsets: 
#        150
#        15539
#        33371
#        45818
#        59662
#        78778
#        90950
#        103508
#        119344
#        134748
#        152075
#        166892
#        179437
#        192475
#        209054
#
# Disc length: 3037 seconds
#
# Revision: 2
# Processed by: cddbd v1.5.2PL0 Copyright (c) Steve Scherf et al.
# Submitted via: ExactAudioCopyFreeDBPlugin 1.0
#
DISCID=c30bdb0f
DTITLE=Johnny Cash - Country Christmas
DYEAR=2006
DGENRE=Holiday
TTITLE0=Silent Night
TTITLE1=It Came Upon a Midnight Clear
TTITLE2=Here Was a Man
TTITLE3=Blue Christmas
TTITLE4=What Child is This?
TTITLE5=Joy to the World
TTITLE6=Ring of Fire (live)
TTITLE7=O Christmas Tree
TTITLE8=Away in a Manger
TTITLE9=Hark! The Herald Angels Sing
TTITLE10=O Come All Ye Faithful
TTITLE11=I Walk the Line (live)
TTITLE12=Figgy Pudding
TTITLE13=O Little Town of Bethlehem
TTITLE14=The First Noël
EXTD=Laserlight Compilation/Delta Entertainment
EXTT0=
EXTT1=
EXTT2=
EXTT3=
EXTT4=
EXTT5=
EXTT6=
EXTT7=
EXTT8=
EXTT9=
EXTT10=
EXTT11=
EXTT12=
EXTT13=
EXTT14=
PLAYORDER=
